<svg xmlns="http://www.w3.org/2000/svg" viewBox="-30 -30 768.0 761.0">
<style>
.board{fill:#e7f2e7;stroke:#184d2c;stroke-width:2} .hole{fill:white;stroke:#184d2c;stroke-width:2}
.active{fill:#ffca6a;stroke:#874c00;stroke-width:1.5} .required{fill:#ffd9d9;stroke:#9d2525;stroke-width:1.5;stroke-dasharray:5 3}
.label{font:8px sans-serif;text-anchor:middle;dominant-baseline:middle;fill:#17202a}
.note{font:9px sans-serif;fill:#17202a}
</style>
<rect class="board" x="0" y="0" width="708.0" height="676.0"/>
<circle class="hole" cx="117.5" cy="231.5" r="8.8"/>
<text class="label" x="133.5" y="231.5">MH1</text>
<circle class="hole" cx="189.0" cy="564.0" r="8.8"/>
<text class="label" x="205.0" y="564.0">MH2</text>
<circle class="hole" cx="682.5" cy="644.0" r="8.8"/>
<text class="label" x="698.5" y="644.0">MH3</text>
<rect class="active" x="22.9" y="13.7" width="111.5" height="25.0" rx="3"/><text x="78.6" y="26.2" class="label">JP21 / J104</text>
<rect class="active" x="3.5" y="220.0" width="62.5" height="117.5" rx="3"/><text x="34.8" y="278.8" class="label">JP16 / J108</text>
<rect class="active" x="1.0" y="327.5" width="62.5" height="42.5" rx="3"/><text x="32.2" y="348.8" class="label">JP14 / J107</text>
<rect class="active" x="52.5" y="612.5" width="80.0" height="62.5" rx="3"/><text x="92.5" y="643.8" class="label">JP3 / J113</text>
<rect class="active" x="82.5" y="631.5" width="45.0" height="43.5" rx="3"/><text x="105.0" y="653.2" class="label">JP22 / J109</text>
<rect class="active" x="141.2" y="612.5" width="42.5" height="62.5" rx="3"/><text x="162.5" y="643.8" class="label">JP13 / J105</text>
<rect class="active" x="170.0" y="612.5" width="55.0" height="62.5" rx="3"/><text x="197.5" y="643.8" class="label">JP5 / J106</text>
<rect class="required" x="285.2" y="586.8" width="59.5" height="48.0" rx="3"/><text x="315.0" y="610.8" class="label">JP8 / J115</text>
<rect class="required" x="365.2" y="564.5" width="74.5" height="111.5" rx="3"/><text x="402.5" y="620.2" class="label">JP19 / J116</text>
<rect class="required" x="442.5" y="580.0" width="50.0" height="48.0" rx="3"/><text x="467.5" y="604.0" class="label">JP24 / J117</text>
<rect class="required" x="500.2" y="589.5" width="74.5" height="86.5" rx="3"/><text x="537.5" y="632.8" class="label">JP17 / J118</text>
<rect class="required" x="595.0" y="590.0" width="25.0" height="60.0" rx="3"/><text x="607.5" y="620.0" class="label">JP1 / J119</text>
<rect class="required" x="627.5" y="590.0" width="25.0" height="60.0" rx="3"/><text x="640.0" y="620.0" class="label">JP9 / J120</text>
<text class="note" x="0" y="700.0">Naranja: conector implementado y alineado. Rojo discontinuo: conector de potencia obligatorio pendiente de huella. Incertidumbre fotográfica ±1.5 mm.</text>
</svg>
