#VRML V2.0 utf8
Shape {
  appearance Appearance { material Material { diffuseColor 0.08 0.1 0.12 specularColor 0.1 0.1 0.1 shininess 0.15 transparency 0 } }
  geometry IndexedFaceSet { solid TRUE coord Coordinate { point [ -3.54331 3.77953 0.00000, 3.54331 3.77953 0.00000, 3.54331 -3.77953 0.00000, -3.54331 -3.77953 0.00000, -3.54331 3.77953 0.31496, 3.54331 3.77953 0.31496, 3.54331 -3.77953 0.31496, -3.54331 -3.77953 0.31496 ] } coordIndex [ 0, 1, 2, 3, -1, 7, 6, 5, 4, -1, 4, 5, 1, 0, -1, 5, 6, 2, 1, -1, 6, 7, 3, 2, -1, 7, 4, 0, 3, -1 ] }
}
Shape {
  appearance Appearance { material Material { diffuseColor 0.75 0.76 0.78 specularColor 0.5 0.5 0.5 shininess 0.6 transparency 0 } }
  geometry IndexedFaceSet { solid TRUE coord Coordinate { point [ -3.30709 2.08661 0.31496, 3.30709 2.08661 0.31496, 3.30709 -3.54331 0.31496, -3.30709 -3.54331 0.31496, -3.30709 2.08661 1.25984, 3.30709 2.08661 1.25984, 3.30709 -3.54331 1.25984, -3.30709 -3.54331 1.25984 ] } coordIndex [ 0, 1, 2, 3, -1, 7, 6, 5, 4, -1, 4, 5, 1, 0, -1, 5, 6, 2, 1, -1, 6, 7, 3, 2, -1, 7, 4, 0, 3, -1 ] }
}
Shape {
  appearance Appearance { material Material { diffuseColor 0.75 0.76 0.78 specularColor 0.5 0.5 0.5 shininess 0.6 transparency 0 } }
  geometry IndexedFaceSet { solid TRUE coord Coordinate { point [ 1.85039 3.32283 0.31496, 2.87402 3.32283 0.31496, 2.87402 2.29921 0.31496, 1.85039 2.29921 0.31496, 1.85039 3.32283 0.55118, 2.87402 3.32283 0.55118, 2.87402 2.29921 0.55118, 1.85039 2.29921 0.55118 ] } coordIndex [ 0, 1, 2, 3, -1, 7, 6, 5, 4, -1, 4, 5, 1, 0, -1, 5, 6, 2, 1, -1, 6, 7, 3, 2, -1, 7, 4, 0, 3, -1 ] }
}
Shape {
  appearance Appearance { material Material { diffuseColor 0.75 0.76 0.78 specularColor 0.5 0.5 0.5 shininess 0.6 transparency 0 } }
  geometry IndexedFaceSet { solid TRUE coord Coordinate { point [ 2.16535 3.00787 0.55118, 2.55906 3.00787 0.55118, 2.55906 2.61417 0.55118, 2.16535 2.61417 0.55118, 2.16535 3.00787 0.80709, 2.55906 3.00787 0.80709, 2.55906 2.61417 0.80709, 2.16535 2.61417 0.80709 ] } coordIndex [ 0, 1, 2, 3, -1, 7, 6, 5, 4, -1, 4, 5, 1, 0, -1, 5, 6, 2, 1, -1, 6, 7, 3, 2, -1, 7, 4, 0, 3, -1 ] }
}
