#VRML V2.0 utf8
Shape {
  appearance Appearance { material Material { diffuseColor 0.78 0.86 0.88 specularColor 0.1 0.1 0.1 shininess 0.15 transparency 0 } }
  geometry IndexedFaceSet { solid TRUE coord Coordinate { point [ 1.08268 -0.00000 0.98425, 1.00026 -0.41432 0.98425, 0.76557 -0.76557 0.98425, 0.41432 -1.00026 0.98425, 0.00000 -1.08268 0.98425, -0.41432 -1.00026 0.98425, -0.76557 -0.76557 0.98425, -1.00026 -0.41432 0.98425, -1.08268 -0.00000 0.98425, -1.00026 0.41432 0.98425, -0.76557 0.76557 0.98425, -0.41432 1.00026 0.98425, -0.00000 1.08268 0.98425, 0.41432 1.00026 0.98425, 0.76557 0.76557 0.98425, 1.00026 0.41432 0.98425, 1.08268 -0.00000 8.66142, 1.00026 -0.41432 8.66142, 0.76557 -0.76557 8.66142, 0.41432 -1.00026 8.66142, 0.00000 -1.08268 8.66142, -0.41432 -1.00026 8.66142, -0.76557 -0.76557 8.66142, -1.00026 -0.41432 8.66142, -1.08268 -0.00000 8.66142, -1.00026 0.41432 8.66142, -0.76557 0.76557 8.66142, -0.41432 1.00026 8.66142, -0.00000 1.08268 8.66142, 0.41432 1.00026 8.66142, 0.76557 0.76557 8.66142, 1.00026 0.41432 8.66142 ] } coordIndex [ 0, 1, 2, 3, 4, 5, 6, 7, 8, 9, 10, 11, 12, 13, 14, 15, -1, 31, 30, 29, 28, 27, 26, 25, 24, 23, 22, 21, 20, 19, 18, 17, 16, -1, 16, 17, 1, 0, -1, 17, 18, 2, 1, -1, 18, 19, 3, 2, -1, 19, 20, 4, 3, -1, 20, 21, 5, 4, -1, 21, 22, 6, 5, -1, 22, 23, 7, 6, -1, 23, 24, 8, 7, -1, 24, 25, 9, 8, -1, 25, 26, 10, 9, -1, 26, 27, 11, 10, -1, 27, 28, 12, 11, -1, 28, 29, 13, 12, -1, 29, 30, 14, 13, -1, 30, 31, 15, 14, -1, 31, 16, 0, 15, -1 ] }
}
Shape {
  appearance Appearance { material Material { diffuseColor 0.8 0.8 0.82 specularColor 0.5 0.5 0.5 shininess 0.6 transparency 0 } }
  geometry IndexedFaceSet { solid TRUE coord Coordinate { point [ 1.08268 -0.00000 0.59055, 1.00026 -0.41432 0.59055, 0.76557 -0.76557 0.59055, 0.41432 -1.00026 0.59055, 0.00000 -1.08268 0.59055, -0.41432 -1.00026 0.59055, -0.76557 -0.76557 0.59055, -1.00026 -0.41432 0.59055, -1.08268 -0.00000 0.59055, -1.00026 0.41432 0.59055, -0.76557 0.76557 0.59055, -0.41432 1.00026 0.59055, -0.00000 1.08268 0.59055, 0.41432 1.00026 0.59055, 0.76557 0.76557 0.59055, 1.00026 0.41432 0.59055, 1.08268 -0.00000 0.98425, 1.00026 -0.41432 0.98425, 0.76557 -0.76557 0.98425, 0.41432 -1.00026 0.98425, 0.00000 -1.08268 0.98425, -0.41432 -1.00026 0.98425, -0.76557 -0.76557 0.98425, -1.00026 -0.41432 0.98425, -1.08268 -0.00000 0.98425, -1.00026 0.41432 0.98425, -0.76557 0.76557 0.98425, -0.41432 1.00026 0.98425, -0.00000 1.08268 0.98425, 0.41432 1.00026 0.98425, 0.76557 0.76557 0.98425, 1.00026 0.41432 0.98425 ] } coordIndex [ 0, 1, 2, 3, 4, 5, 6, 7, 8, 9, 10, 11, 12, 13, 14, 15, -1, 31, 30, 29, 28, 27, 26, 25, 24, 23, 22, 21, 20, 19, 18, 17, 16, -1, 16, 17, 1, 0, -1, 17, 18, 2, 1, -1, 18, 19, 3, 2, -1, 19, 20, 4, 3, -1, 20, 21, 5, 4, -1, 21, 22, 6, 5, -1, 22, 23, 7, 6, -1, 23, 24, 8, 7, -1, 24, 25, 9, 8, -1, 25, 26, 10, 9, -1, 26, 27, 11, 10, -1, 27, 28, 12, 11, -1, 28, 29, 13, 12, -1, 29, 30, 14, 13, -1, 30, 31, 15, 14, -1, 31, 16, 0, 15, -1 ] }
}
Shape {
  appearance Appearance { material Material { diffuseColor 0.8 0.8 0.82 specularColor 0.5 0.5 0.5 shininess 0.6 transparency 0 } }
  geometry IndexedFaceSet { solid TRUE coord Coordinate { point [ 1.08268 -0.00000 8.66142, 1.00026 -0.41432 8.66142, 0.76557 -0.76557 8.66142, 0.41432 -1.00026 8.66142, 0.00000 -1.08268 8.66142, -0.41432 -1.00026 8.66142, -0.76557 -0.76557 8.66142, -1.00026 -0.41432 8.66142, -1.08268 -0.00000 8.66142, -1.00026 0.41432 8.66142, -0.76557 0.76557 8.66142, -0.41432 1.00026 8.66142, -0.00000 1.08268 8.66142, 0.41432 1.00026 8.66142, 0.76557 0.76557 8.66142, 1.00026 0.41432 8.66142, 1.08268 -0.00000 9.05512, 1.00026 -0.41432 9.05512, 0.76557 -0.76557 9.05512, 0.41432 -1.00026 9.05512, 0.00000 -1.08268 9.05512, -0.41432 -1.00026 9.05512, -0.76557 -0.76557 9.05512, -1.00026 -0.41432 9.05512, -1.08268 -0.00000 9.05512, -1.00026 0.41432 9.05512, -0.76557 0.76557 9.05512, -0.41432 1.00026 9.05512, -0.00000 1.08268 9.05512, 0.41432 1.00026 9.05512, 0.76557 0.76557 9.05512, 1.00026 0.41432 9.05512 ] } coordIndex [ 0, 1, 2, 3, 4, 5, 6, 7, 8, 9, 10, 11, 12, 13, 14, 15, -1, 31, 30, 29, 28, 27, 26, 25, 24, 23, 22, 21, 20, 19, 18, 17, 16, -1, 16, 17, 1, 0, -1, 17, 18, 2, 1, -1, 18, 19, 3, 2, -1, 19, 20, 4, 3, -1, 20, 21, 5, 4, -1, 21, 22, 6, 5, -1, 22, 23, 7, 6, -1, 23, 24, 8, 7, -1, 24, 25, 9, 8, -1, 25, 26, 10, 9, -1, 26, 27, 11, 10, -1, 27, 28, 12, 11, -1, 28, 29, 13, 12, -1, 29, 30, 14, 13, -1, 30, 31, 15, 14, -1, 31, 16, 0, 15, -1 ] }
}
Shape {
  appearance Appearance { material Material { diffuseColor 0.8 0.8 0.82 specularColor 0.5 0.5 0.5 shininess 0.6 transparency 0 } }
  geometry IndexedFaceSet { solid TRUE coord Coordinate { point [ -0.12992 0.12992 -0.59055, 0.12992 0.12992 -0.59055, 0.12992 -0.12992 -0.59055, -0.12992 -0.12992 -0.59055, -0.12992 0.12992 0.59055, 0.12992 0.12992 0.59055, 0.12992 -0.12992 0.59055, -0.12992 -0.12992 0.59055 ] } coordIndex [ 0, 1, 2, 3, -1, 7, 6, 5, 4, -1, 4, 5, 1, 0, -1, 5, 6, 2, 1, -1, 6, 7, 3, 2, -1, 7, 4, 0, 3, -1 ] }
}
Shape {
  appearance Appearance { material Material { diffuseColor 0.8 0.8 0.82 specularColor 0.5 0.5 0.5 shininess 0.6 transparency 0 } }
  geometry IndexedFaceSet { solid TRUE coord Coordinate { point [ -0.12992 0.12992 9.44882, 2.12992 0.12992 9.44882, 2.12992 -0.12992 9.44882, -0.12992 -0.12992 9.44882, -0.12992 0.12992 9.70866, 2.12992 0.12992 9.70866, 2.12992 -0.12992 9.70866, -0.12992 -0.12992 9.70866 ] } coordIndex [ 0, 1, 2, 3, -1, 7, 6, 5, 4, -1, 4, 5, 1, 0, -1, 5, 6, 2, 1, -1, 6, 7, 3, 2, -1, 7, 4, 0, 3, -1 ] }
}
Shape {
  appearance Appearance { material Material { diffuseColor 0.8 0.8 0.82 specularColor 0.5 0.5 0.5 shininess 0.6 transparency 0 } }
  geometry IndexedFaceSet { solid TRUE coord Coordinate { point [ 1.87008 0.12992 -0.59055, 2.12992 0.12992 -0.59055, 2.12992 -0.12992 -0.59055, 1.87008 -0.12992 -0.59055, 1.87008 0.12992 9.70866, 2.12992 0.12992 9.70866, 2.12992 -0.12992 9.70866, 1.87008 -0.12992 9.70866 ] } coordIndex [ 0, 1, 2, 3, -1, 7, 6, 5, 4, -1, 4, 5, 1, 0, -1, 5, 6, 2, 1, -1, 6, 7, 3, 2, -1, 7, 4, 0, 3, -1 ] }
}
