#VRML V2.0 utf8
Shape {
  appearance Appearance { material Material { diffuseColor 0.93 0.91 0.84 specularColor 0.1 0.1 0.1 shininess 0.15 transparency 0 } }
  geometry IndexedFaceSet { solid TRUE coord Coordinate { point [ -0.98425 1.20079 0.00000, 7.87402 1.20079 0.00000, 7.87402 -0.41339 0.00000, 7.55906 -0.72835 0.00000, -0.98425 -0.72835 0.00000, -0.98425 1.20079 0.47244, 7.87402 1.20079 0.47244, 7.87402 -0.41339 0.47244, 7.55906 -0.72835 0.47244, -0.98425 -0.72835 0.47244 ] } coordIndex [ 0, 1, 2, 3, 4, -1, 9, 8, 7, 6, 5, -1, 5, 6, 1, 0, -1, 6, 7, 2, 1, -1, 7, 8, 3, 2, -1, 8, 9, 4, 3, -1, 9, 5, 0, 4, -1 ] }
}
Shape {
  appearance Appearance { material Material { diffuseColor 0.93 0.91 0.84 specularColor 0.1 0.1 0.1 shininess 0.15 transparency 0 } }
  geometry IndexedFaceSet { solid TRUE coord Coordinate { point [ -0.98425 -0.41339 0.47244, 7.55906 -0.41339 0.47244, 7.55906 -0.72835 0.47244, -0.98425 -0.72835 0.47244, -0.98425 -0.41339 2.36220, 7.55906 -0.41339 2.36220, 7.55906 -0.72835 2.36220, -0.98425 -0.72835 2.36220 ] } coordIndex [ 0, 1, 2, 3, -1, 7, 6, 5, 4, -1, 4, 5, 1, 0, -1, 5, 6, 2, 1, -1, 6, 7, 3, 2, -1, 7, 4, 0, 3, -1 ] }
}
Shape {
  appearance Appearance { material Material { diffuseColor 0.93 0.91 0.84 specularColor 0.1 0.1 0.1 shininess 0.15 transparency 0 } }
  geometry IndexedFaceSet { solid TRUE coord Coordinate { point [ -0.98425 1.20079 0.47244, -0.66929 1.20079 0.47244, -0.66929 -0.72835 0.47244, -0.98425 -0.72835 0.47244, -0.98425 1.20079 2.36220, -0.66929 1.20079 2.36220, -0.66929 -0.72835 2.36220, -0.98425 -0.72835 2.36220 ] } coordIndex [ 0, 1, 2, 3, -1, 7, 6, 5, 4, -1, 4, 5, 1, 0, -1, 5, 6, 2, 1, -1, 6, 7, 3, 2, -1, 7, 4, 0, 3, -1 ] }
}
Shape {
  appearance Appearance { material Material { diffuseColor 0.93 0.91 0.84 specularColor 0.1 0.1 0.1 shininess 0.15 transparency 0 } }
  geometry IndexedFaceSet { solid TRUE coord Coordinate { point [ 7.55906 1.20079 0.47244, 7.87402 1.20079 0.47244, 7.87402 -0.41339 0.47244, 7.55906 -0.41339 0.47244, 7.55906 1.20079 2.36220, 7.87402 1.20079 2.36220, 7.87402 -0.41339 2.36220, 7.55906 -0.41339 2.36220 ] } coordIndex [ 0, 1, 2, 3, -1, 7, 6, 5, 4, -1, 4, 5, 1, 0, -1, 5, 6, 2, 1, -1, 6, 7, 3, 2, -1, 7, 4, 0, 3, -1 ] }
}
Shape {
  appearance Appearance { material Material { diffuseColor 0.93 0.91 0.84 specularColor 0.1 0.1 0.1 shininess 0.15 transparency 0 } }
  geometry IndexedFaceSet { solid TRUE coord Coordinate { point [ -0.98425 1.20079 0.47244, 7.87402 1.20079 0.47244, 7.87402 0.96457 0.47244, -0.98425 0.96457 0.47244, -0.98425 1.20079 1.18110, 7.87402 1.20079 1.18110, 7.87402 0.96457 1.18110, -0.98425 0.96457 1.18110 ] } coordIndex [ 0, 1, 2, 3, -1, 7, 6, 5, 4, -1, 4, 5, 1, 0, -1, 5, 6, 2, 1, -1, 6, 7, 3, 2, -1, 7, 4, 0, 3, -1 ] }
}
Shape {
  appearance Appearance { material Material { diffuseColor 0.8 0.8 0.82 specularColor 0.5 0.5 0.5 shininess 0.6 transparency 0 } }
  geometry IndexedFaceSet { solid TRUE coord Coordinate { point [ -0.12598 0.12598 -1.25984, 0.12598 0.12598 -1.25984, 0.12598 -0.12598 -1.25984, -0.12598 -0.12598 -1.25984, -0.12598 0.12598 2.12598, 0.12598 0.12598 2.12598, 0.12598 -0.12598 2.12598, -0.12598 -0.12598 2.12598 ] } coordIndex [ 0, 1, 2, 3, -1, 7, 6, 5, 4, -1, 4, 5, 1, 0, -1, 5, 6, 2, 1, -1, 6, 7, 3, 2, -1, 7, 4, 0, 3, -1 ] }
}
Shape {
  appearance Appearance { material Material { diffuseColor 0.8 0.8 0.82 specularColor 0.5 0.5 0.5 shininess 0.6 transparency 0 } }
  geometry IndexedFaceSet { solid TRUE coord Coordinate { point [ 0.85827 0.12598 -1.25984, 1.11024 0.12598 -1.25984, 1.11024 -0.12598 -1.25984, 0.85827 -0.12598 -1.25984, 0.85827 0.12598 2.12598, 1.11024 0.12598 2.12598, 1.11024 -0.12598 2.12598, 0.85827 -0.12598 2.12598 ] } coordIndex [ 0, 1, 2, 3, -1, 7, 6, 5, 4, -1, 4, 5, 1, 0, -1, 5, 6, 2, 1, -1, 6, 7, 3, 2, -1, 7, 4, 0, 3, -1 ] }
}
Shape {
  appearance Appearance { material Material { diffuseColor 0.8 0.8 0.82 specularColor 0.5 0.5 0.5 shininess 0.6 transparency 0 } }
  geometry IndexedFaceSet { solid TRUE coord Coordinate { point [ 1.84252 0.12598 -1.25984, 2.09449 0.12598 -1.25984, 2.09449 -0.12598 -1.25984, 1.84252 -0.12598 -1.25984, 1.84252 0.12598 2.12598, 2.09449 0.12598 2.12598, 2.09449 -0.12598 2.12598, 1.84252 -0.12598 2.12598 ] } coordIndex [ 0, 1, 2, 3, -1, 7, 6, 5, 4, -1, 4, 5, 1, 0, -1, 5, 6, 2, 1, -1, 6, 7, 3, 2, -1, 7, 4, 0, 3, -1 ] }
}
Shape {
  appearance Appearance { material Material { diffuseColor 0.8 0.8 0.82 specularColor 0.5 0.5 0.5 shininess 0.6 transparency 0 } }
  geometry IndexedFaceSet { solid TRUE coord Coordinate { point [ 2.82677 0.12598 -1.25984, 3.07874 0.12598 -1.25984, 3.07874 -0.12598 -1.25984, 2.82677 -0.12598 -1.25984, 2.82677 0.12598 2.12598, 3.07874 0.12598 2.12598, 3.07874 -0.12598 2.12598, 2.82677 -0.12598 2.12598 ] } coordIndex [ 0, 1, 2, 3, -1, 7, 6, 5, 4, -1, 4, 5, 1, 0, -1, 5, 6, 2, 1, -1, 6, 7, 3, 2, -1, 7, 4, 0, 3, -1 ] }
}
Shape {
  appearance Appearance { material Material { diffuseColor 0.8 0.8 0.82 specularColor 0.5 0.5 0.5 shininess 0.6 transparency 0 } }
  geometry IndexedFaceSet { solid TRUE coord Coordinate { point [ 3.81102 0.12598 -1.25984, 4.06299 0.12598 -1.25984, 4.06299 -0.12598 -1.25984, 3.81102 -0.12598 -1.25984, 3.81102 0.12598 2.12598, 4.06299 0.12598 2.12598, 4.06299 -0.12598 2.12598, 3.81102 -0.12598 2.12598 ] } coordIndex [ 0, 1, 2, 3, -1, 7, 6, 5, 4, -1, 4, 5, 1, 0, -1, 5, 6, 2, 1, -1, 6, 7, 3, 2, -1, 7, 4, 0, 3, -1 ] }
}
Shape {
  appearance Appearance { material Material { diffuseColor 0.8 0.8 0.82 specularColor 0.5 0.5 0.5 shininess 0.6 transparency 0 } }
  geometry IndexedFaceSet { solid TRUE coord Coordinate { point [ 4.79528 0.12598 -1.25984, 5.04724 0.12598 -1.25984, 5.04724 -0.12598 -1.25984, 4.79528 -0.12598 -1.25984, 4.79528 0.12598 2.12598, 5.04724 0.12598 2.12598, 5.04724 -0.12598 2.12598, 4.79528 -0.12598 2.12598 ] } coordIndex [ 0, 1, 2, 3, -1, 7, 6, 5, 4, -1, 4, 5, 1, 0, -1, 5, 6, 2, 1, -1, 6, 7, 3, 2, -1, 7, 4, 0, 3, -1 ] }
}
Shape {
  appearance Appearance { material Material { diffuseColor 0.8 0.8 0.82 specularColor 0.5 0.5 0.5 shininess 0.6 transparency 0 } }
  geometry IndexedFaceSet { solid TRUE coord Coordinate { point [ 5.77953 0.12598 -1.25984, 6.03150 0.12598 -1.25984, 6.03150 -0.12598 -1.25984, 5.77953 -0.12598 -1.25984, 5.77953 0.12598 2.12598, 6.03150 0.12598 2.12598, 6.03150 -0.12598 2.12598, 5.77953 -0.12598 2.12598 ] } coordIndex [ 0, 1, 2, 3, -1, 7, 6, 5, 4, -1, 4, 5, 1, 0, -1, 5, 6, 2, 1, -1, 6, 7, 3, 2, -1, 7, 4, 0, 3, -1 ] }
}
Shape {
  appearance Appearance { material Material { diffuseColor 0.8 0.8 0.82 specularColor 0.5 0.5 0.5 shininess 0.6 transparency 0 } }
  geometry IndexedFaceSet { solid TRUE coord Coordinate { point [ 6.76378 0.12598 -1.25984, 7.01575 0.12598 -1.25984, 7.01575 -0.12598 -1.25984, 6.76378 -0.12598 -1.25984, 6.76378 0.12598 2.12598, 7.01575 0.12598 2.12598, 7.01575 -0.12598 2.12598, 6.76378 -0.12598 2.12598 ] } coordIndex [ 0, 1, 2, 3, -1, 7, 6, 5, 4, -1, 4, 5, 1, 0, -1, 5, 6, 2, 1, -1, 6, 7, 3, 2, -1, 7, 4, 0, 3, -1 ] }
}
