#VRML V2.0 utf8
Shape {
  appearance Appearance { material Material { diffuseColor 0.1 0.1 0.11 specularColor 0.1 0.1 0.1 shininess 0.15 transparency 0 } }
  geometry IndexedFaceSet { solid TRUE coord Coordinate { point [ -1.18110 1.18110 0.01969, 1.18110 1.18110 0.01969, 1.18110 -1.18110 0.01969, -1.18110 -1.18110 0.01969, -1.18110 1.18110 1.10236, 1.18110 1.18110 1.10236, 1.18110 -1.18110 1.10236, -1.18110 -1.18110 1.10236 ] } coordIndex [ 0, 1, 2, 3, -1, 7, 6, 5, 4, -1, 4, 5, 1, 0, -1, 5, 6, 2, 1, -1, 6, 7, 3, 2, -1, 7, 4, 0, 3, -1 ] }
}
Shape {
  appearance Appearance { material Material { diffuseColor 0.8 0.8 0.82 specularColor 0.5 0.5 0.5 shininess 0.6 transparency 0 } }
  geometry IndexedFaceSet { solid TRUE coord Coordinate { point [ -1.18110 1.12205 0.00000, -0.66929 1.12205 0.00000, -0.66929 -1.12205 0.00000, -1.18110 -1.12205 0.00000, -1.18110 1.12205 0.11811, -0.66929 1.12205 0.11811, -0.66929 -1.12205 0.11811, -1.18110 -1.12205 0.11811 ] } coordIndex [ 0, 1, 2, 3, -1, 7, 6, 5, 4, -1, 4, 5, 1, 0, -1, 5, 6, 2, 1, -1, 6, 7, 3, 2, -1, 7, 4, 0, 3, -1 ] }
}
Shape {
  appearance Appearance { material Material { diffuseColor 0.8 0.8 0.82 specularColor 0.5 0.5 0.5 shininess 0.6 transparency 0 } }
  geometry IndexedFaceSet { solid TRUE coord Coordinate { point [ 0.66929 1.12205 0.00000, 1.18110 1.12205 0.00000, 1.18110 -1.12205 0.00000, 0.66929 -1.12205 0.00000, 0.66929 1.12205 0.11811, 1.18110 1.12205 0.11811, 1.18110 -1.12205 0.11811, 0.66929 -1.12205 0.11811 ] } coordIndex [ 0, 1, 2, 3, -1, 7, 6, 5, 4, -1, 4, 5, 1, 0, -1, 5, 6, 2, 1, -1, 6, 7, 3, 2, -1, 7, 4, 0, 3, -1 ] }
}
