#VRML V2.0 utf8
Shape {
  appearance Appearance { material Material { diffuseColor 0.93 0.91 0.84 specularColor 0.1 0.1 0.1 shininess 0.15 transparency 0 } }
  geometry IndexedFaceSet { solid TRUE coord Coordinate { point [ -0.98425 1.88976 0.00000, 2.95276 1.88976 0.00000, 2.95276 -1.41732 0.00000, -0.98425 -1.41732 0.00000, -0.98425 1.88976 0.86614, 2.95276 1.88976 0.86614, 2.95276 -1.41732 0.86614, -0.98425 -1.41732 0.86614 ] } coordIndex [ 0, 1, 2, 3, -1, 7, 6, 5, 4, -1, 4, 5, 1, 0, -1, 5, 6, 2, 1, -1, 6, 7, 3, 2, -1, 7, 4, 0, 3, -1 ] }
}
Shape {
  appearance Appearance { material Material { diffuseColor 0.93 0.91 0.84 specularColor 0.1 0.1 0.1 shininess 0.15 transparency 0 } }
  geometry IndexedFaceSet { solid TRUE coord Coordinate { point [ -0.98425 1.88976 0.86614, 2.95276 1.88976 0.86614, 2.95276 1.33858 0.86614, -0.98425 1.33858 0.86614, -0.98425 1.88976 4.33071, 2.95276 1.88976 4.33071, 2.95276 1.33858 4.33071, -0.98425 1.33858 4.33071 ] } coordIndex [ 0, 1, 2, 3, -1, 7, 6, 5, 4, -1, 4, 5, 1, 0, -1, 5, 6, 2, 1, -1, 6, 7, 3, 2, -1, 7, 4, 0, 3, -1 ] }
}
Shape {
  appearance Appearance { material Material { diffuseColor 0.93 0.91 0.84 specularColor 0.1 0.1 0.1 shininess 0.15 transparency 0 } }
  geometry IndexedFaceSet { solid TRUE coord Coordinate { point [ -0.59055 -1.41732 0.00000, 2.55906 -1.41732 0.00000, 2.55906 -1.88976 0.00000, -0.59055 -1.88976 0.00000, -0.59055 -1.41732 1.77165, 2.55906 -1.41732 1.77165, 2.55906 -1.88976 1.77165, -0.59055 -1.88976 1.77165 ] } coordIndex [ 0, 1, 2, 3, -1, 7, 6, 5, 4, -1, 4, 5, 1, 0, -1, 5, 6, 2, 1, -1, 6, 7, 3, 2, -1, 7, 4, 0, 3, -1 ] }
}
Shape {
  appearance Appearance { material Material { diffuseColor 0.93 0.91 0.84 specularColor 0.1 0.1 0.1 shininess 0.15 transparency 0 } }
  geometry IndexedFaceSet { solid TRUE coord Coordinate { point [ 0.78740 1.33858 0.86614, 1.18110 1.33858 0.86614, 1.18110 0.39370 0.86614, 0.78740 0.39370 0.86614, 0.78740 1.33858 3.93701, 1.18110 1.33858 3.93701, 1.18110 0.39370 3.93701, 0.78740 0.39370 3.93701 ] } coordIndex [ 0, 1, 2, 3, -1, 7, 6, 5, 4, -1, 4, 5, 1, 0, -1, 5, 6, 2, 1, -1, 6, 7, 3, 2, -1, 7, 4, 0, 3, -1 ] }
}
Shape {
  appearance Appearance { material Material { diffuseColor 0.8 0.8 0.82 specularColor 0.5 0.5 0.5 shininess 0.6 transparency 0 } }
  geometry IndexedFaceSet { solid TRUE coord Coordinate { point [ -0.22441 0.22441 -1.37795, 0.22441 0.22441 -1.37795, 0.22441 -0.22441 -1.37795, -0.22441 -0.22441 -1.37795, -0.22441 0.22441 4.01575, 0.22441 0.22441 4.01575, 0.22441 -0.22441 4.01575, -0.22441 -0.22441 4.01575 ] } coordIndex [ 0, 1, 2, 3, -1, 7, 6, 5, 4, -1, 4, 5, 1, 0, -1, 5, 6, 2, 1, -1, 6, 7, 3, 2, -1, 7, 4, 0, 3, -1 ] }
}
Shape {
  appearance Appearance { material Material { diffuseColor 0.8 0.8 0.82 specularColor 0.5 0.5 0.5 shininess 0.6 transparency 0 } }
  geometry IndexedFaceSet { solid TRUE coord Coordinate { point [ 1.74409 0.22441 -1.37795, 2.19291 0.22441 -1.37795, 2.19291 -0.22441 -1.37795, 1.74409 -0.22441 -1.37795, 1.74409 0.22441 4.01575, 2.19291 0.22441 4.01575, 2.19291 -0.22441 4.01575, 1.74409 -0.22441 4.01575 ] } coordIndex [ 0, 1, 2, 3, -1, 7, 6, 5, 4, -1, 4, 5, 1, 0, -1, 5, 6, 2, 1, -1, 6, 7, 3, 2, -1, 7, 4, 0, 3, -1 ] }
}
